<?xml version='1.0' encoding='utf-8'?>
<mxGraphModel grid="0">
  <root>
    <mxCell id="0" />
    <mxCell id="1" parent="0" />
    <mxCell id="node1" value="&lt;font style='font-size: 14.0px;' face='Helvetica,sans-Serif' color='#000000'&gt;empty else&lt;/font&gt;" style="verticalAlign=middle;html=1;rounded=0;labelBackgroundColor=none;strokeColor=black;fillColor=none;strokeWidth=1;dashed=0;" parent="1" vertex="1">
      <mxGeometry x="1476.62" y="381.5" width="82.0" height="36.0" as="geometry" />
    </mxCell>
    <mxCell id="node2" value="&lt;font style='font-size: 14.0px;' face='Helvetica,sans-Serif' color='#000000'&gt;merge&lt;/font&gt;" style="ellipse;verticalAlign=middle;html=1;rounded=0;labelBackgroundColor=none;strokeColor=black;fillColor=none;strokeWidth=1;dashed=0;" parent="1" vertex="1">
      <mxGeometry x="1566.87" y="470.0" width="71.5" height="36.0" as="geometry" />
    </mxCell>
    <mxCell id="node21" value="&lt;font style='font-size: 14.0px;' face='Helvetica,sans-Serif' color='#000000'&gt;if messageField.String() == &quot;&quot;&lt;/font&gt;" style="rhombus;verticalAlign=middle;html=1;rounded=0;labelBackgroundColor=none;strokeColor=black;fillColor=none;strokeWidth=1;dashed=0;" parent="1" vertex="1">
      <mxGeometry x="1424.54" y="543.0" width="356.1700000000001" height="36.0" as="geometry" />
    </mxCell>
    <mxCell id="node3" value="&lt;font style='font-size: 14.0px;' face='Helvetica,sans-Serif' color='#000000'&gt;return ErrInvalidResponse&lt;/font&gt;" style="verticalAlign=middle;html=1;rounded=0;labelBackgroundColor=none;strokeColor=black;fillColor=none;strokeWidth=1;dashed=0;" parent="1" vertex="1">
      <mxGeometry x="1832.25" y="165.5" width="172.75" height="36.0" as="geometry" />
    </mxCell>
    <mxCell id="node4" value="&lt;font style='font-size: 14.0px;' face='Helvetica,sans-Serif' color='#000000'&gt;merge&lt;/font&gt;" style="ellipse;verticalAlign=middle;html=1;rounded=0;labelBackgroundColor=none;strokeColor=black;fillColor=none;strokeWidth=1;dashed=0;" parent="1" vertex="1">
      <mxGeometry x="1954.87" y="273.5" width="71.5" height="36.0" as="geometry" />
    </mxCell>
    <mxCell id="node5" value="&lt;font style='font-size: 14.0px;' face='Helvetica,sans-Serif' color='#000000'&gt;Function: checkMethodContain&lt;/font&gt;" style="verticalAlign=middle;html=1;rounded=0;labelBackgroundColor=none;strokeColor=black;fillColor=none;strokeWidth=1;dashed=0;" parent="1" vertex="1">
      <mxGeometry x="198.25" y="77.0" width="202.75" height="36.0" as="geometry" />
    </mxCell>
    <mxCell id="node6" value="&lt;font style='font-size: 14.0px;' face='Helvetica,sans-Serif' color='#000000'&gt;lastSeprationIndex := strings.LastIndex(fullMethod, &quot;/&quot;)&lt;/font&gt;" style="verticalAlign=middle;html=1;rounded=0;labelBackgroundColor=none;strokeColor=black;fillColor=none;strokeWidth=1;dashed=0;" parent="1" vertex="1">
      <mxGeometry x="14.12" y="165.5" width="343.0" height="36.0" as="geometry" />
    </mxCell>
    <mxCell id="node55" value="&lt;font style='font-size: 14.0px;' face='Helvetica,sans-Serif' color='#000000'&gt;if lastSeprationIndex != -1&lt;/font&gt;" style="rhombus;verticalAlign=middle;html=1;rounded=0;labelBackgroundColor=none;strokeColor=black;fillColor=none;strokeWidth=1;dashed=0;" parent="1" vertex="1">
      <mxGeometry x="29.6" y="273.5" width="312.04999999999995" height="36.0" as="geometry" />
    </mxCell>
    <mxCell id="node7" value="&lt;font style='font-size: 14.0px;' face='Helvetica,sans-Serif' color='#000000'&gt;merge&lt;/font&gt;" style="ellipse;verticalAlign=middle;html=1;rounded=0;labelBackgroundColor=none;strokeColor=black;fillColor=none;strokeWidth=1;dashed=0;" parent="1" vertex="1">
      <mxGeometry x="306.87" y="470.0" width="71.5" height="36.0" as="geometry" />
    </mxCell>
    <mxCell id="node8" value="&lt;font style='font-size: 14.0px;' face='Helvetica,sans-Serif' color='#000000'&gt;return false&lt;/font&gt;" style="verticalAlign=middle;html=1;rounded=0;labelBackgroundColor=none;strokeColor=black;fillColor=none;strokeWidth=1;dashed=0;" parent="1" vertex="1">
      <mxGeometry x="396.88" y="705.0" width="83.5" height="36.0" as="geometry" />
    </mxCell>
    <mxCell id="node39" value="&lt;font style='font-size: 14.0px;' face='Helvetica,sans-Serif' color='#000000'&gt;End&lt;/font&gt;" style="ellipse;verticalAlign=middle;html=1;rounded=0;labelBackgroundColor=none;strokeColor=black;fillColor=none;strokeWidth=1;dashed=0;" parent="1" vertex="1">
      <mxGeometry x="670.62" y="1393.5" width="54.0" height="36.0" as="geometry" />
    </mxCell>
    <mxCell id="node9" value="&lt;font style='font-size: 14.0px;' face='Helvetica,sans-Serif' color='#000000'&gt;Function: getFunctionName&lt;/font&gt;" style="verticalAlign=middle;html=1;rounded=0;labelBackgroundColor=none;strokeColor=black;fillColor=none;strokeWidth=1;dashed=0;" parent="1" vertex="1">
      <mxGeometry x="483.38" y="77.0" width="182.5" height="36.0" as="geometry" />
    </mxCell>
    <mxCell id="node10" value="&lt;font style='font-size: 14.0px;' face='Helvetica,sans-Serif' color='#000000'&gt;return runtime.FuncForPC(reflect.ValueOf(i).Pointer()).Name()&lt;/font&gt;" style="verticalAlign=middle;html=1;rounded=0;labelBackgroundColor=none;strokeColor=black;fillColor=none;strokeWidth=1;dashed=0;" parent="1" vertex="1">
      <mxGeometry x="207.88" y="327.5" width="389.5" height="36.0" as="geometry" />
    </mxCell>
    <mxCell id="node11" value="&lt;font style='font-size: 14.0px;' face='Helvetica,sans-Serif' color='#000000'&gt;code := validateParams(ctx, req)&lt;/font&gt;" style="verticalAlign=middle;html=1;rounded=0;labelBackgroundColor=none;strokeColor=black;fillColor=none;strokeWidth=1;dashed=0;" parent="1" vertex="1">
      <mxGeometry x="904.75" y="273.5" width="211.75" height="36.0" as="geometry" />
    </mxCell>
    <mxCell id="node12" value="&lt;font style='font-size: 14.0px;' face='Helvetica,sans-Serif' color='#000000'&gt;if code != pbModel.RetCode_SUCCESS&lt;/font&gt;" style="rhombus;verticalAlign=middle;html=1;rounded=0;labelBackgroundColor=none;strokeColor=black;fillColor=none;strokeWidth=1;dashed=0;" parent="1" vertex="1">
      <mxGeometry x="767.94" y="381.5" width="473.3699999999999" height="36.0" as="geometry" />
    </mxCell>
    <mxCell id="node13" value="&lt;font style='font-size: 14.0px;' face='Helvetica,sans-Serif' color='#000000'&gt;return genResp(ctx, code)&lt;/font&gt;" style="verticalAlign=middle;html=1;rounded=0;labelBackgroundColor=none;strokeColor=black;fillColor=none;strokeWidth=1;dashed=0;" parent="1" vertex="1">
      <mxGeometry x="789.62" y="470.0" width="172.0" height="36.0" as="geometry" />
    </mxCell>
    <mxCell id="node32" value="&lt;font style='font-size: 14.0px;' face='Helvetica,sans-Serif' color='#000000'&gt;empty else&lt;/font&gt;" style="verticalAlign=middle;html=1;rounded=0;labelBackgroundColor=none;strokeColor=black;fillColor=none;strokeWidth=1;dashed=0;" parent="1" vertex="1">
      <mxGeometry x="979.62" y="470.0" width="81.99999999999989" height="36.0" as="geometry" />
    </mxCell>
    <mxCell id="node14" value="&lt;font style='font-size: 14.0px;' face='Helvetica,sans-Serif' color='#000000'&gt;merge&lt;/font&gt;" style="ellipse;verticalAlign=middle;html=1;rounded=0;labelBackgroundColor=none;strokeColor=black;fillColor=none;strokeWidth=1;dashed=0;" parent="1" vertex="1">
      <mxGeometry x="847.87" y="543.0" width="71.5" height="36.0" as="geometry" />
    </mxCell>
    <mxCell id="node33" value="&lt;font style='font-size: 14.0px;' face='Helvetica,sans-Serif' color='#000000'&gt;ctx = utils.DuplicateContext(ctx)&lt;/font&gt;" style="verticalAlign=middle;html=1;rounded=0;labelBackgroundColor=none;strokeColor=black;fillColor=none;strokeWidth=1;dashed=0;" parent="1" vertex="1">
      <mxGeometry x="780.75" y="651.0" width="205.75" height="36.0" as="geometry" />
    </mxCell>
    <mxCell id="node15" value="&lt;font style='font-size: 14.0px;' face='Helvetica,sans-Serif' color='#000000'&gt;empty else&lt;/font&gt;" style="verticalAlign=middle;html=1;rounded=0;labelBackgroundColor=none;strokeColor=black;fillColor=none;strokeWidth=1;dashed=0;" parent="1" vertex="1">
      <mxGeometry x="774.62" y="940.0" width="82.0" height="36.0" as="geometry" />
    </mxCell>
    <mxCell id="node16" value="&lt;font style='font-size: 14.0px;' face='Helvetica,sans-Serif' color='#000000'&gt;merge&lt;/font&gt;" style="ellipse;verticalAlign=middle;html=1;rounded=0;labelBackgroundColor=none;strokeColor=black;fillColor=none;strokeWidth=1;dashed=0;" parent="1" vertex="1">
      <mxGeometry x="785.87" y="1013.0" width="71.5" height="36.0" as="geometry" />
    </mxCell>
    <mxCell id="node42" value="&lt;font style='font-size: 14.0px;' face='Helvetica,sans-Serif' color='#000000'&gt;if err != nil&lt;/font&gt;" style="rhombus;verticalAlign=middle;html=1;rounded=0;labelBackgroundColor=none;strokeColor=black;fillColor=none;strokeWidth=1;dashed=0;" parent="1" vertex="1">
      <mxGeometry x="751.77" y="1086.0" width="139.71000000000004" height="36.0" as="geometry" />
    </mxCell>
    <mxCell id="node17" value="&lt;font style='font-size: 14.0px;' face='Helvetica,sans-Serif' color='#000000'&gt;return nil&lt;/font&gt;" style="verticalAlign=middle;html=1;rounded=0;labelBackgroundColor=none;strokeColor=black;fillColor=none;strokeWidth=1;dashed=0;" parent="1" vertex="1">
      <mxGeometry x="709.38" y="1174.5" width="68.5" height="36.0" as="geometry" />
    </mxCell>
    <mxCell id="node18" value="&lt;font style='font-size: 14.0px;' face='Helvetica,sans-Serif' color='#000000'&gt;merge&lt;/font&gt;" style="ellipse;verticalAlign=middle;html=1;rounded=0;labelBackgroundColor=none;strokeColor=black;fillColor=none;strokeWidth=1;dashed=0;" parent="1" vertex="1">
      <mxGeometry x="707.87" y="1247.5" width="71.5" height="36.0" as="geometry" />
    </mxCell>
    <mxCell id="node44" value="&lt;font style='font-size: 14.0px;' face='Helvetica,sans-Serif' color='#000000'&gt;return resp&lt;/font&gt;" style="verticalAlign=middle;html=1;rounded=0;labelBackgroundColor=none;strokeColor=black;fillColor=none;strokeWidth=1;dashed=0;" parent="1" vertex="1">
      <mxGeometry x="703.0" y="1320.5" width="81.25" height="36.0" as="geometry" />
    </mxCell>
    <mxCell id="node19" value="&lt;font style='font-size: 14.0px;' face='Helvetica,sans-Serif' color='#000000'&gt;if !messageField.IsValid()&lt;/font&gt;" style="rhombus;verticalAlign=middle;html=1;rounded=0;labelBackgroundColor=none;strokeColor=black;fillColor=none;strokeWidth=1;dashed=0;" parent="1" vertex="1">
      <mxGeometry x="1433.98" y="273.5" width="309.28999999999996" height="36.0" as="geometry" />
    </mxCell>
    <mxCell id="node20" value="&lt;font style='font-size: 14.0px;' face='Helvetica,sans-Serif' color='#000000'&gt;return ErrInvalidResponse&lt;/font&gt;" style="verticalAlign=middle;html=1;rounded=0;labelBackgroundColor=none;strokeColor=black;fillColor=none;strokeWidth=1;dashed=0;" parent="1" vertex="1">
      <mxGeometry x="1576.25" y="381.5" width="172.75" height="36.0" as="geometry" />
    </mxCell>
    <mxCell id="node22" value="&lt;font style='font-size: 14.0px;' face='Helvetica,sans-Serif' color='#000000'&gt;messageField.SetString(pbModel.RetCode_name[int32(retcode)])&lt;/font&gt;" style="verticalAlign=middle;html=1;rounded=0;labelBackgroundColor=none;strokeColor=black;fillColor=none;strokeWidth=1;dashed=0;" parent="1" vertex="1">
      <mxGeometry x="1298.0" y="651.0" width="411.25" height="36.0" as="geometry" />
    </mxCell>
    <mxCell id="node23" value="&lt;font style='font-size: 14.0px;' face='Helvetica,sans-Serif' color='#000000'&gt;empty else&lt;/font&gt;" style="verticalAlign=middle;html=1;rounded=0;labelBackgroundColor=none;strokeColor=black;fillColor=none;strokeWidth=1;dashed=0;" parent="1" vertex="1">
      <mxGeometry x="1727.62" y="651.0" width="82.0" height="36.0" as="geometry" />
    </mxCell>
    <mxCell id="node52" value="&lt;font style='font-size: 14.0px;' face='Helvetica,sans-Serif' color='#000000'&gt;merge&lt;/font&gt;" style="ellipse;verticalAlign=middle;html=1;rounded=0;labelBackgroundColor=none;strokeColor=black;fillColor=none;strokeWidth=1;dashed=0;" parent="1" vertex="1">
      <mxGeometry x="1467.87" y="759.0" width="71.5" height="36.0" as="geometry" />
    </mxCell>
    <mxCell id="node24" value="&lt;font style='font-size: 14.0px;' face='Helvetica,sans-Serif' color='#000000'&gt;retcodeField := reflect.ValueOf(resp).Elem().FieldByName(&quot;RetCode&quot;)&lt;/font&gt;" style="verticalAlign=middle;html=1;rounded=0;labelBackgroundColor=none;strokeColor=black;fillColor=none;strokeWidth=1;dashed=0;" parent="1" vertex="1">
      <mxGeometry x="1771.88" y="4.0" width="437.5" height="36.0" as="geometry" />
    </mxCell>
    <mxCell id="node25" value="&lt;font style='font-size: 14.0px;' face='Helvetica,sans-Serif' color='#000000'&gt;if !retcodeField.IsValid()&lt;/font&gt;" style="rhombus;verticalAlign=middle;html=1;rounded=0;labelBackgroundColor=none;strokeColor=black;fillColor=none;strokeWidth=1;dashed=0;" parent="1" vertex="1">
      <mxGeometry x="1845.63" y="77.0" width="289.9899999999998" height="36.0" as="geometry" />
    </mxCell>
    <mxCell id="node51" value="&lt;font style='font-size: 14.0px;' face='Helvetica,sans-Serif' color='#000000'&gt;empty else&lt;/font&gt;" style="verticalAlign=middle;html=1;rounded=0;labelBackgroundColor=none;strokeColor=black;fillColor=none;strokeWidth=1;dashed=0;" parent="1" vertex="1">
      <mxGeometry x="2022.62" y="165.5" width="82.0" height="36.0" as="geometry" />
    </mxCell>
    <mxCell id="node26" value="&lt;font style='font-size: 14.0px;' face='Helvetica,sans-Serif' color='#000000'&gt;Start&lt;/font&gt;" style="ellipse;verticalAlign=middle;html=1;rounded=0;labelBackgroundColor=none;strokeColor=black;fillColor=none;strokeWidth=1;dashed=0;" parent="1" vertex="1">
      <mxGeometry x="804.7" y="4.0" width="57.84" height="36.0" as="geometry" />
    </mxCell>
    <mxCell id="node27" value="&lt;font style='font-size: 14.0px;' face='Helvetica,sans-Serif' color='#000000'&gt;Function: genResp&lt;/font&gt;" style="verticalAlign=middle;html=1;rounded=0;labelBackgroundColor=none;strokeColor=black;fillColor=none;strokeWidth=1;dashed=0;" parent="1" vertex="1">
      <mxGeometry x="716.0" y="77.0" width="129.25" height="36.0" as="geometry" />
    </mxCell>
    <mxCell id="node28" value="&lt;font style='font-size: 14.0px;' face='Helvetica,sans-Serif' color='#000000'&gt;Function: Interceptor&lt;/font&gt;" style="verticalAlign=middle;html=1;rounded=0;labelBackgroundColor=none;strokeColor=black;fillColor=none;strokeWidth=1;dashed=0;" parent="1" vertex="1">
      <mxGeometry x="879.75" y="77.0" width="139.75" height="36.0" as="geometry" />
    </mxCell>
    <mxCell id="node29" value="&lt;font style='font-size: 14.0px;' face='Helvetica,sans-Serif' color='#000000'&gt;Function: checkResponseIgnore&lt;/font&gt;" style="verticalAlign=middle;html=1;rounded=0;labelBackgroundColor=none;strokeColor=black;fillColor=none;strokeWidth=1;dashed=0;" parent="1" vertex="1">
      <mxGeometry x="1172.88" y="77.0" width="209.5" height="36.0" as="geometry" />
    </mxCell>
    <mxCell id="node30" value="&lt;font style='font-size: 14.0px;' face='Helvetica,sans-Serif' color='#000000'&gt;Function: handleRespMessage&lt;/font&gt;" style="verticalAlign=middle;html=1;rounded=0;labelBackgroundColor=none;strokeColor=black;fillColor=none;strokeWidth=1;dashed=0;" parent="1" vertex="1">
      <mxGeometry x="1437.25" y="77.0" width="202.75" height="36.0" as="geometry" />
    </mxCell>
    <mxCell id="node34" value="&lt;font style='font-size: 14.0px;' face='Helvetica,sans-Serif' color='#000000'&gt;resp := &amp;pbService.CommonRes{RetCode: code}&lt;/font&gt;" style="verticalAlign=middle;html=1;rounded=0;labelBackgroundColor=none;strokeColor=black;fillColor=none;strokeWidth=1;dashed=0;" parent="1" vertex="1">
      <mxGeometry x="413.75" y="165.5" width="313.75" height="36.0" as="geometry" />
    </mxCell>
    <mxCell id="node31" value="&lt;font style='font-size: 14.0px;' face='Helvetica,sans-Serif' color='#000000'&gt;log.Info(ctx, &quot;gRPC incoming request&quot;, log.Fields{&quot;req&quot;: req, &quot;rpcMethod&quot;: info.FullMethod})&lt;/font&gt;" style="verticalAlign=middle;html=1;rounded=0;labelBackgroundColor=none;strokeColor=black;fillColor=none;strokeWidth=1;dashed=0;" parent="1" vertex="1">
      <mxGeometry x="745.62" y="165.5" width="561.9999999999999" height="36.0" as="geometry" />
    </mxCell>
    <mxCell id="node54" value="&lt;font style='font-size: 14.0px;' face='Helvetica,sans-Serif' color='#000000'&gt;return checkMethodContain(fullMethod, ignoreResponseMethods)&lt;/font&gt;" style="verticalAlign=middle;html=1;rounded=0;labelBackgroundColor=none;strokeColor=black;fillColor=none;strokeWidth=1;dashed=0;" parent="1" vertex="1">
      <mxGeometry x="1107.25" y="219.5" width="412.75" height="36.0" as="geometry" />
    </mxCell>
    <mxCell id="node50" value="&lt;font style='font-size: 14.0px;' face='Helvetica,sans-Serif' color='#000000'&gt;messageField := reflect.ValueOf(resp).Elem().FieldByName(&quot;Message&quot;)&lt;/font&gt;" style="verticalAlign=middle;html=1;rounded=0;labelBackgroundColor=none;strokeColor=black;fillColor=none;strokeWidth=1;dashed=0;" parent="1" vertex="1">
      <mxGeometry x="1363.5" y="165.5" width="450.25" height="36.0" as="geometry" />
    </mxCell>
    <mxCell id="node49" value="&lt;font style='font-size: 14.0px;' face='Helvetica,sans-Serif' color='#000000'&gt;resp, err = handler(ctx, req)&lt;/font&gt;" style="verticalAlign=middle;html=1;rounded=0;labelBackgroundColor=none;strokeColor=black;fillColor=none;strokeWidth=1;dashed=0;" parent="1" vertex="1">
      <mxGeometry x="793.5" y="759.0" width="180.25" height="36.0" as="geometry" />
    </mxCell>
    <mxCell id="node45" value="&lt;font style='font-size: 14.0px;' face='Helvetica,sans-Serif' color='#000000'&gt;if err != nil&lt;/font&gt;" style="rhombus;verticalAlign=middle;html=1;rounded=0;labelBackgroundColor=none;strokeColor=black;fillColor=none;strokeWidth=1;dashed=0;" parent="1" vertex="1">
      <mxGeometry x="550.77" y="273.5" width="139.71000000000004" height="36.0" as="geometry" />
    </mxCell>
    <mxCell id="node35" value="&lt;font style='font-size: 14.0px;' face='Helvetica,sans-Serif' color='#000000'&gt;return nil&lt;/font&gt;" style="verticalAlign=middle;html=1;rounded=0;labelBackgroundColor=none;strokeColor=black;fillColor=none;strokeWidth=1;dashed=0;" parent="1" vertex="1">
      <mxGeometry x="574.38" y="381.5" width="68.5" height="36.0" as="geometry" />
    </mxCell>
    <mxCell id="node36" value="&lt;font style='font-size: 14.0px;' face='Helvetica,sans-Serif' color='#000000'&gt;merge&lt;/font&gt;" style="ellipse;verticalAlign=middle;html=1;rounded=0;labelBackgroundColor=none;strokeColor=black;fillColor=none;strokeWidth=1;dashed=0;" parent="1" vertex="1">
      <mxGeometry x="638.87" y="470.0" width="71.5" height="36.0" as="geometry" />
    </mxCell>
    <mxCell id="node38" value="&lt;font style='font-size: 14.0px;' face='Helvetica,sans-Serif' color='#000000'&gt;return resp&lt;/font&gt;" style="verticalAlign=middle;html=1;rounded=0;labelBackgroundColor=none;strokeColor=black;fillColor=none;strokeWidth=1;dashed=0;" parent="1" vertex="1">
      <mxGeometry x="634.0" y="597.0" width="81.25" height="36.0" as="geometry" />
    </mxCell>
    <mxCell id="node37" value="&lt;font style='font-size: 14.0px;' face='Helvetica,sans-Serif' color='#000000'&gt;empty else&lt;/font&gt;" style="verticalAlign=middle;html=1;rounded=0;labelBackgroundColor=none;strokeColor=black;fillColor=none;strokeWidth=1;dashed=0;" parent="1" vertex="1">
      <mxGeometry x="660.62" y="381.5" width="82.0" height="36.0" as="geometry" />
    </mxCell>
    <mxCell id="node40" value="&lt;font style='font-size: 14.0px;' face='Helvetica,sans-Serif' color='#000000'&gt;if err != nil&lt;/font&gt;" style="rhombus;verticalAlign=middle;html=1;rounded=0;labelBackgroundColor=none;strokeColor=black;fillColor=none;strokeWidth=1;dashed=0;" parent="1" vertex="1">
      <mxGeometry x="813.77" y="832.0" width="139.71000000000004" height="36.0" as="geometry" />
    </mxCell>
    <mxCell id="node41" value="&lt;font style='font-size: 14.0px;' face='Helvetica,sans-Serif' color='#000000'&gt;return nil&lt;/font&gt;" style="verticalAlign=middle;html=1;rounded=0;labelBackgroundColor=none;strokeColor=black;fillColor=none;strokeWidth=1;dashed=0;" parent="1" vertex="1">
      <mxGeometry x="874.38" y="940.0" width="68.5" height="36.0" as="geometry" />
    </mxCell>
    <mxCell id="node43" value="&lt;font style='font-size: 14.0px;' face='Helvetica,sans-Serif' color='#000000'&gt;empty else&lt;/font&gt;" style="verticalAlign=middle;html=1;rounded=0;labelBackgroundColor=none;strokeColor=black;fillColor=none;strokeWidth=1;dashed=0;" parent="1" vertex="1">
      <mxGeometry x="795.62" y="1174.5" width="82.0" height="36.0" as="geometry" />
    </mxCell>
    <mxCell id="node46" value="&lt;font style='font-size: 14.0px;' face='Helvetica,sans-Serif' color='#000000'&gt;retcode := retcodeField.Int()&lt;/font&gt;" style="verticalAlign=middle;html=1;rounded=0;labelBackgroundColor=none;strokeColor=black;fillColor=none;strokeWidth=1;dashed=0;" parent="1" vertex="1">
      <mxGeometry x="2227.38" y="4.0" width="182.5" height="36.0" as="geometry" />
    </mxCell>
    <mxCell id="node47" value="&lt;font style='font-size: 14.0px;' face='Helvetica,sans-Serif' color='#000000'&gt;method = fullMethod[lastSeprationIndex+1:]&lt;/font&gt;" style="verticalAlign=middle;html=1;rounded=0;labelBackgroundColor=none;strokeColor=black;fillColor=none;strokeWidth=1;dashed=0;" parent="1" vertex="1">
      <mxGeometry x="4.0" y="381.5" width="279.25" height="36.0" as="geometry" />
    </mxCell>
    <mxCell id="node48" value="&lt;font style='font-size: 14.0px;' face='Helvetica,sans-Serif' color='#000000'&gt;empty else&lt;/font&gt;" style="verticalAlign=middle;html=1;rounded=0;labelBackgroundColor=none;strokeColor=black;fillColor=none;strokeWidth=1;dashed=0;" parent="1" vertex="1">
      <mxGeometry x="301.62" y="381.5" width="82.0" height="36.0" as="geometry" />
    </mxCell>
    <mxCell id="node53" value="&lt;font style='font-size: 14.0px;' face='Helvetica,sans-Serif' color='#000000'&gt;return nil&lt;/font&gt;" style="verticalAlign=middle;html=1;rounded=0;labelBackgroundColor=none;strokeColor=black;fillColor=none;strokeWidth=1;dashed=0;" parent="1" vertex="1">
      <mxGeometry x="1330.38" y="886.0" width="68.5" height="36.0" as="geometry" />
    </mxCell>
    <mxCell id="edge1" style="html=1;endArrow=block;dashed=0;endFill=1;startArrow=none;startFill=0;fillColor=black;strokeColor=black;strokeWidth=1;rounded=0;exitX=0.7049;exitY=1.0000;entryX=0.1752;entryY=0.0000;" parent="1" edge="1" source="node1" target="node2">
      <mxGeometry as="geometry" relative="1">
        <mxPoint x="1534.42" y="417.59000000000003" as="sourcePoint" />
        <mxPoint x="1579.4" y="463.37" as="targetPoint" />
      </mxGeometry>
    </mxCell>
    <mxCell id="edge48" style="html=1;endArrow=block;dashed=0;endFill=1;startArrow=none;startFill=0;fillColor=black;strokeColor=black;strokeWidth=1;rounded=0;exitX=0.5000;exitY=1.0000;entryX=0.5000;entryY=0.0000;" parent="1" edge="1" source="node2" target="node21">
      <mxGeometry as="geometry" relative="1">
        <mxPoint x="1602.62" y="506.19000000000005" as="sourcePoint" />
        <mxPoint x="1602.62" y="531.46" as="targetPoint" />
      </mxGeometry>
    </mxCell>
    <mxCell id="edge2" style="html=1;endArrow=block;dashed=0;endFill=1;startArrow=none;startFill=0;fillColor=black;strokeColor=black;strokeWidth=1;rounded=0;exitX=0.5669;exitY=1.0000;entryX=0.2571;entryY=0.0000;" parent="1" edge="1" source="node3" target="node4">
      <mxGeometry as="geometry" relative="1">
        <mxPoint x="1930.19" y="201.52999999999997" as="sourcePoint" />
        <mxPoint x="1973.25" y="264.9200000000001" as="targetPoint" />
      </mxGeometry>
    </mxCell>
    <mxCell id="edge3" style="html=1;endArrow=block;dashed=0;endFill=1;startArrow=none;startFill=0;fillColor=black;strokeColor=black;strokeWidth=1;rounded=0;exitX=0.3876;exitY=1.0000;entryX=0.5929;entryY=0.0000;" parent="1" edge="1" source="node5" target="node6">
      <mxGeometry as="geometry" relative="1">
        <mxPoint x="276.83" y="113.29999999999995" as="sourcePoint" />
        <mxPoint x="217.5" y="158.31999999999994" as="targetPoint" />
      </mxGeometry>
    </mxCell>
    <mxCell id="edge59" style="html=1;endArrow=block;dashed=0;endFill=1;startArrow=none;startFill=0;fillColor=black;strokeColor=black;strokeWidth=1;rounded=0;exitX=0.5000;exitY=1.0000;entryX=0.5000;entryY=0.0000;" parent="1" edge="1" source="node6" target="node55">
      <mxGeometry as="geometry" relative="1">
        <mxPoint x="185.62" y="201.52999999999997" as="sourcePoint" />
        <mxPoint x="185.62" y="261.71000000000004" as="targetPoint" />
      </mxGeometry>
    </mxCell>
    <mxCell id="edge4" style="html=1;endArrow=block;dashed=0;endFill=1;startArrow=none;startFill=0;fillColor=black;strokeColor=black;strokeWidth=1;rounded=0;exitX=0.5987;exitY=1.0000;entryX=0.3623;entryY=0.0000;" parent="1" edge="1" source="node7" target="node8">
      <mxGeometry as="geometry" relative="1">
        <mxPoint x="349.68" y="506.13" as="sourcePoint" />
        <mxPoint x="427.13" y="694.1" as="targetPoint" />
      </mxGeometry>
    </mxCell>
    <mxCell id="edge62" style="html=1;endArrow=block;dashed=0;endFill=1;startArrow=none;startFill=0;fillColor=black;strokeColor=black;strokeWidth=1;curved=1;exitX=0.5669;exitY=1.0000;entryX=0.0000;entryY=0.3819;" parent="1" edge="1" source="node8" target="node39">
      <mxGeometry as="geometry" relative="1">
        <mxPoint x="444.22" y="741.19" as="sourcePoint" />
        <mxPoint x="659.86" y="1407.25" as="targetPoint" />
        <Array as="points">
          <mxPoint x="456.62" y="813.0" />
          <mxPoint x="456.62" y="1386.5723827779416" />
        </Array>
      </mxGeometry>
    </mxCell>
    <mxCell id="edge5" style="html=1;endArrow=block;dashed=0;endFill=1;startArrow=none;startFill=0;fillColor=black;strokeColor=black;strokeWidth=1;curved=1;exitX=0.0000;exitY=0.9803;entryX=0.4782;entryY=0.0000;" parent="1" edge="1" source="node9" target="node10">
      <mxGeometry as="geometry" relative="1">
        <mxPoint x="483.04" y="112.28999999999996" as="sourcePoint" />
        <mxPoint x="394.12" y="316.4100000000001" as="targetPoint" />
        <Array as="points">
          <mxPoint x="428.2169407780202" y="130.80168233469453" />
          <mxPoint x="369.053745645802" y="217.83864841795094" />
        </Array>
      </mxGeometry>
    </mxCell>
    <mxCell id="edge44" style="html=1;endArrow=block;dashed=0;endFill=1;startArrow=none;startFill=0;fillColor=black;strokeColor=black;strokeWidth=1;curved=1;exitX=0.6108;exitY=1.0000;entryX=0.0000;entryY=0.2917;" parent="1" edge="1" source="node10" target="node39">
      <mxGeometry as="geometry" relative="1">
        <mxPoint x="445.78" y="363.8599999999999" as="sourcePoint" />
        <mxPoint x="660.31" y="1404.0" as="targetPoint" />
        <Array as="points">
          <mxPoint x="512.62" y="397.62699545749524" />
          <mxPoint x="512.62" y="442.75" />
          <mxPoint x="512.62" y="1375.3584159881568" />
        </Array>
      </mxGeometry>
    </mxCell>
    <mxCell id="edge6" style="html=1;endArrow=block;dashed=0;endFill=1;startArrow=none;startFill=0;fillColor=black;strokeColor=black;strokeWidth=1;rounded=0;exitX=0.4954;exitY=1.0000;entryX=0.5034;entryY=0.0000;" parent="1" edge="1" source="node11" target="node12">
      <mxGeometry as="geometry" relative="1">
        <mxPoint x="1009.66" y="309.53" as="sourcePoint" />
        <mxPoint x="1006.25" y="369.71000000000004" as="targetPoint" />
      </mxGeometry>
    </mxCell>
    <mxCell id="edge28" style="html=1;endArrow=block;dashed=0;endFill=1;startArrow=none;startFill=0;fillColor=black;strokeColor=black;strokeWidth=1;rounded=0;exitX=0.4506;exitY=1.0000;entryX=0.7055;entryY=0.0000;" parent="1" edge="1" source="node12" target="node13">
      <mxGeometry as="geometry" relative="1">
        <mxPoint x="981.26" y="416.15999999999997" as="sourcePoint" />
        <mxPoint x="910.97" y="463.29999999999995" as="targetPoint" />
      </mxGeometry>
    </mxCell>
    <mxCell id="label_edge28" style="edgeLabel;html=1;align=center;verticalAlign=bottom;resizable=0;points=[];" parent="edge28" value="&lt;font style='font-size: 14.0px;' face='Times,serif' color='#000000'&gt;Yes&lt;/font&gt;" vertex="1" connectable="0">
      <mxGeometry as="geometry" relative="1" />
    </mxCell>
    <mxCell id="edge29" style="html=1;endArrow=block;dashed=0;endFill=1;startArrow=none;startFill=0;fillColor=black;strokeColor=black;strokeWidth=1;rounded=0;exitX=0.5067;exitY=1.0000;entryX=0.4357;entryY=0.0000;" parent="1" edge="1" source="node12" target="node32">
      <mxGeometry as="geometry" relative="1">
        <mxPoint x="1007.79" y="417.59000000000003" as="sourcePoint" />
        <mxPoint x="1015.35" y="458.48" as="targetPoint" />
      </mxGeometry>
    </mxCell>
    <mxCell id="label_edge29" style="edgeLabel;html=1;align=center;verticalAlign=bottom;resizable=0;points=[];" parent="edge29" value="&lt;font style='font-size: 14.0px;' face='Times,serif' color='#000000'&gt;No&lt;/font&gt;" vertex="1" connectable="0">
      <mxGeometry as="geometry" relative="1" />
    </mxCell>
    <mxCell id="edge7" style="html=1;endArrow=block;dashed=0;endFill=1;startArrow=none;startFill=0;fillColor=black;strokeColor=black;strokeWidth=1;rounded=0;exitX=0.5113;exitY=1.0000;entryX=0.4555;entryY=0.0000;" parent="1" edge="1" source="node13" target="node14">
      <mxGeometry as="geometry" relative="1">
        <mxPoint x="877.56" y="506.19000000000005" as="sourcePoint" />
        <mxPoint x="880.44" y="531.76" as="targetPoint" />
      </mxGeometry>
    </mxCell>
    <mxCell id="edge23" style="html=1;endArrow=block;dashed=0;endFill=1;startArrow=none;startFill=0;fillColor=black;strokeColor=black;strokeWidth=1;rounded=0;exitX=0.5000;exitY=1.0000;entryX=0.5000;entryY=0.0000;" parent="1" edge="1" source="node14" target="node33">
      <mxGeometry as="geometry" relative="1">
        <mxPoint x="883.62" y="579.03" as="sourcePoint" />
        <mxPoint x="883.62" y="639.21" as="targetPoint" />
      </mxGeometry>
    </mxCell>
    <mxCell id="edge8" style="html=1;endArrow=block;dashed=0;endFill=1;startArrow=none;startFill=0;fillColor=black;strokeColor=black;strokeWidth=1;rounded=0;exitX=0.5178;exitY=1.0000;entryX=0.4667;entryY=0.0000;" parent="1" edge="1" source="node15" target="node16">
      <mxGeometry as="geometry" relative="1">
        <mxPoint x="817.08" y="976.19" as="sourcePoint" />
        <mxPoint x="819.24" y="1001.76" as="targetPoint" />
      </mxGeometry>
    </mxCell>
    <mxCell id="edge63" style="html=1;endArrow=block;dashed=0;endFill=1;startArrow=none;startFill=0;fillColor=black;strokeColor=black;strokeWidth=1;rounded=0;exitX=0.5000;exitY=1.0000;entryX=0.5000;entryY=0.0000;" parent="1" edge="1" source="node16" target="node42">
      <mxGeometry as="geometry" relative="1">
        <mxPoint x="821.62" y="1049.19" as="sourcePoint" />
        <mxPoint x="821.62" y="1074.46" as="targetPoint" />
      </mxGeometry>
    </mxCell>
    <mxCell id="edge9" style="html=1;endArrow=block;dashed=0;endFill=1;startArrow=none;startFill=0;fillColor=black;strokeColor=black;strokeWidth=1;rounded=0;exitX=0.4999;exitY=1.0000;entryX=0.5000;entryY=0.0000;" parent="1" edge="1" source="node17" target="node18">
      <mxGeometry as="geometry" relative="1">
        <mxPoint x="743.62" y="1210.69" as="sourcePoint" />
        <mxPoint x="743.62" y="1235.96" as="targetPoint" />
      </mxGeometry>
    </mxCell>
    <mxCell id="edge39" style="html=1;endArrow=block;dashed=0;endFill=1;startArrow=none;startFill=0;fillColor=black;strokeColor=black;strokeWidth=1;rounded=0;exitX=0.5000;exitY=1.0000;entryX=0.4999;entryY=0.0000;" parent="1" edge="1" source="node18" target="node44">
      <mxGeometry as="geometry" relative="1">
        <mxPoint x="743.62" y="1283.69" as="sourcePoint" />
        <mxPoint x="743.62" y="1308.96" as="targetPoint" />
      </mxGeometry>
    </mxCell>
    <mxCell id="edge10" style="html=1;endArrow=block;dashed=0;endFill=1;startArrow=none;startFill=0;fillColor=black;strokeColor=black;strokeWidth=1;rounded=0;exitX=0.4651;exitY=1.0000;entryX=0.7185;entryY=0.0000;" parent="1" edge="1" source="node19" target="node1">
      <mxGeometry as="geometry" relative="1">
        <mxPoint x="1577.84" y="308.5999999999999" as="sourcePoint" />
        <mxPoint x="1535.54" y="371.75" as="targetPoint" />
      </mxGeometry>
    </mxCell>
    <mxCell id="label_edge10" style="edgeLabel;html=1;align=center;verticalAlign=bottom;resizable=0;points=[];" parent="edge10" value="&lt;font style='font-size: 14.0px;' face='Times,serif' color='#000000'&gt;No&lt;/font&gt;" vertex="1" connectable="0">
      <mxGeometry as="geometry" relative="1" />
    </mxCell>
    <mxCell id="edge11" style="html=1;endArrow=block;dashed=0;endFill=1;startArrow=none;startFill=0;fillColor=black;strokeColor=black;strokeWidth=1;rounded=0;exitX=0.5363;exitY=1.0000;entryX=0.3930;entryY=0.0000;" parent="1" edge="1" source="node19" target="node20">
      <mxGeometry as="geometry" relative="1">
        <mxPoint x="1599.86" y="308.5999999999999" as="sourcePoint" />
        <mxPoint x="1644.14" y="372.02" as="targetPoint" />
      </mxGeometry>
    </mxCell>
    <mxCell id="label_edge11" style="edgeLabel;html=1;align=center;verticalAlign=bottom;resizable=0;points=[];" parent="edge11" value="&lt;font style='font-size: 14.0px;' face='Times,serif' color='#000000'&gt;Yes&lt;/font&gt;" vertex="1" connectable="0">
      <mxGeometry as="geometry" relative="1" />
    </mxCell>
    <mxCell id="edge37" style="html=1;endArrow=block;dashed=0;endFill=1;startArrow=none;startFill=0;fillColor=black;strokeColor=black;strokeWidth=1;rounded=0;exitX=0.4314;exitY=1.0000;entryX=0.7491;entryY=0.0000;" parent="1" edge="1" source="node20" target="node2">
      <mxGeometry as="geometry" relative="1">
        <mxPoint x="1650.77" y="417.59000000000003" as="sourcePoint" />
        <mxPoint x="1620.43" y="461.33000000000004" as="targetPoint" />
      </mxGeometry>
    </mxCell>
    <mxCell id="edge12" style="html=1;endArrow=block;dashed=0;endFill=1;startArrow=none;startFill=0;fillColor=black;strokeColor=black;strokeWidth=1;rounded=0;exitX=0.4590;exitY=1.0000;entryX=0.5582;entryY=0.0000;" parent="1" edge="1" source="node21" target="node22">
      <mxGeometry as="geometry" relative="1">
        <mxPoint x="1588.02" y="577.64" as="sourcePoint" />
        <mxPoint x="1527.56" y="642.37" as="targetPoint" />
      </mxGeometry>
    </mxCell>
    <mxCell id="label_edge12" style="edgeLabel;html=1;align=center;verticalAlign=bottom;resizable=0;points=[];" parent="edge12" value="&lt;font style='font-size: 14.0px;' face='Times,serif' color='#000000'&gt;Yes&lt;/font&gt;" vertex="1" connectable="0">
      <mxGeometry as="geometry" relative="1" />
    </mxCell>
    <mxCell id="edge13" style="html=1;endArrow=block;dashed=0;endFill=1;startArrow=none;startFill=0;fillColor=black;strokeColor=black;strokeWidth=1;rounded=0;exitX=0.5658;exitY=1.0000;entryX=0.0523;entryY=0.0000;" parent="1" edge="1" source="node21" target="node23">
      <mxGeometry as="geometry" relative="1">
        <mxPoint x="1626.06" y="576.96" as="sourcePoint" />
        <mxPoint x="1731.91" y="644.56" as="targetPoint" />
      </mxGeometry>
    </mxCell>
    <mxCell id="label_edge13" style="edgeLabel;html=1;align=center;verticalAlign=bottom;resizable=0;points=[];" parent="edge13" value="&lt;font style='font-size: 14.0px;' face='Times,serif' color='#000000'&gt;No&lt;/font&gt;" vertex="1" connectable="0">
      <mxGeometry as="geometry" relative="1" />
    </mxCell>
    <mxCell id="edge50" style="html=1;endArrow=block;dashed=0;endFill=1;startArrow=none;startFill=0;fillColor=black;strokeColor=black;strokeWidth=1;rounded=0;exitX=0.5000;exitY=1.0000;entryX=0.5000;entryY=0.0000;" parent="1" edge="1" source="node22" target="node52">
      <mxGeometry as="geometry" relative="1">
        <mxPoint x="1503.62" y="687.03" as="sourcePoint" />
        <mxPoint x="1503.62" y="747.21" as="targetPoint" />
      </mxGeometry>
    </mxCell>
    <mxCell id="edge56" style="html=1;endArrow=block;dashed=0;endFill=1;startArrow=none;startFill=0;fillColor=black;strokeColor=black;strokeWidth=1;rounded=0;exitX=0.0000;exitY=0.9878;entryX=1.0000;entryY=0.0514;" parent="1" edge="1" source="node23" target="node52">
      <mxGeometry as="geometry" relative="1">
        <mxPoint x="1727.22" y="686.56" as="sourcePoint" />
        <mxPoint x="1541.5" y="760.85" as="targetPoint" />
      </mxGeometry>
    </mxCell>
    <mxCell id="edge14" style="html=1;endArrow=block;dashed=0;endFill=1;startArrow=none;startFill=0;fillColor=black;strokeColor=black;strokeWidth=1;rounded=0;exitX=0.5000;exitY=1.0000;entryX=0.5000;entryY=0.0000;" parent="1" edge="1" source="node24" target="node25">
      <mxGeometry as="geometry" relative="1">
        <mxPoint x="1990.62" y="40.190000000000055" as="sourcePoint" />
        <mxPoint x="1990.62" y="65.46000000000004" as="targetPoint" />
      </mxGeometry>
    </mxCell>
    <mxCell id="edge54" style="html=1;endArrow=block;dashed=0;endFill=1;startArrow=none;startFill=0;fillColor=black;strokeColor=black;strokeWidth=1;rounded=0;exitX=0.4556;exitY=1.0000;entryX=0.6256;entryY=0.0000;" parent="1" edge="1" source="node25" target="node3">
      <mxGeometry as="geometry" relative="1">
        <mxPoint x="1977.75" y="111.46000000000004" as="sourcePoint" />
        <mxPoint x="1940.32" y="156.44000000000005" as="targetPoint" />
      </mxGeometry>
    </mxCell>
    <mxCell id="label_edge54" style="edgeLabel;html=1;align=center;verticalAlign=bottom;resizable=0;points=[];" parent="edge54" value="&lt;font style='font-size: 14.0px;' face='Times,serif' color='#000000'&gt;Yes&lt;/font&gt;" vertex="1" connectable="0">
      <mxGeometry as="geometry" relative="1" />
    </mxCell>
    <mxCell id="edge55" style="html=1;endArrow=block;dashed=0;endFill=1;startArrow=none;startFill=0;fillColor=black;strokeColor=black;strokeWidth=1;rounded=0;exitX=0.5450;exitY=1.0000;entryX=0.2318;entryY=0.0000;" parent="1" edge="1" source="node25" target="node51">
      <mxGeometry as="geometry" relative="1">
        <mxPoint x="2003.68" y="111.46000000000004" as="sourcePoint" />
        <mxPoint x="2041.63" y="156.44000000000005" as="targetPoint" />
      </mxGeometry>
    </mxCell>
    <mxCell id="label_edge55" style="edgeLabel;html=1;align=center;verticalAlign=bottom;resizable=0;points=[];" parent="edge55" value="&lt;font style='font-size: 14.0px;' face='Times,serif' color='#000000'&gt;No&lt;/font&gt;" vertex="1" connectable="0">
      <mxGeometry as="geometry" relative="1" />
    </mxCell>
    <mxCell id="edge15" style="html=1;endArrow=block;dashed=0;endFill=1;startArrow=none;startFill=0;fillColor=black;strokeColor=black;strokeWidth=1;rounded=0;exitX=0.0000;exitY=0.6325;entryX=1.0000;entryY=0.0553;" parent="1" edge="1" source="node26" target="node5">
      <mxGeometry as="geometry" relative="1">
        <mxPoint x="805.29" y="26.769999999999982" as="sourcePoint" />
        <mxPoint x="412.54" y="78.99000000000001" as="targetPoint" />
      </mxGeometry>
    </mxCell>
    <mxCell id="edge16" style="html=1;endArrow=block;dashed=0;endFill=1;startArrow=none;startFill=0;fillColor=black;strokeColor=black;strokeWidth=1;rounded=0;exitX=0.0000;exitY=0.7278;entryX=0.9092;entryY=0.0000;" parent="1" edge="1" source="node26" target="node9">
      <mxGeometry as="geometry" relative="1">
        <mxPoint x="807.37" y="30.200000000000045" as="sourcePoint" />
        <mxPoint x="649.31" y="73.52999999999997" as="targetPoint" />
      </mxGeometry>
    </mxCell>
    <mxCell id="edge17" style="html=1;endArrow=block;dashed=0;endFill=1;startArrow=none;startFill=0;fillColor=black;strokeColor=black;strokeWidth=1;rounded=0;exitX=0.2967;exitY=1.0000;entryX=0.6540;entryY=0.0000;" parent="1" edge="1" source="node26" target="node27">
      <mxGeometry as="geometry" relative="1">
        <mxPoint x="821.86" y="38.75999999999999" as="sourcePoint" />
        <mxPoint x="800.53" y="67.33999999999992" as="targetPoint" />
      </mxGeometry>
    </mxCell>
    <mxCell id="edge18" style="html=1;endArrow=block;dashed=0;endFill=1;startArrow=none;startFill=0;fillColor=black;strokeColor=black;strokeWidth=1;rounded=0;exitX=0.8494;exitY=1.0000;entryX=0.2285;entryY=0.0000;" parent="1" edge="1" source="node26" target="node28">
      <mxGeometry as="geometry" relative="1">
        <mxPoint x="853.83" y="35.36999999999989" as="sourcePoint" />
        <mxPoint x="911.68" y="70.76999999999998" as="targetPoint" />
      </mxGeometry>
    </mxCell>
    <mxCell id="edge19" style="html=1;endArrow=block;dashed=0;endFill=1;startArrow=none;startFill=0;fillColor=black;strokeColor=black;strokeWidth=1;rounded=0;exitX=1.0000;exitY=0.6511;entryX=0.0000;entryY=0.0000;" parent="1" edge="1" source="node26" target="node29">
      <mxGeometry as="geometry" relative="1">
        <mxPoint x="861.4" y="27.440000000000055" as="sourcePoint" />
        <mxPoint x="1161.28" y="75.3900000000001" as="targetPoint" />
      </mxGeometry>
    </mxCell>
    <mxCell id="edge20" style="html=1;endArrow=block;dashed=0;endFill=1;startArrow=none;startFill=0;fillColor=black;strokeColor=black;strokeWidth=1;rounded=0;exitX=1.0000;exitY=0.5997;entryX=0.0000;entryY=0.1042;" parent="1" edge="1" source="node26" target="node30">
      <mxGeometry as="geometry" relative="1">
        <mxPoint x="862.39" y="25.589999999999918" as="sourcePoint" />
        <mxPoint x="1425.95" y="80.75" as="targetPoint" />
        <Array as="points">
          <mxPoint x="1391.62" y="77.0" />
        </Array>
      </mxGeometry>
    </mxCell>
    <mxCell id="edge24" style="html=1;endArrow=block;dashed=0;endFill=1;startArrow=none;startFill=0;fillColor=black;strokeColor=black;strokeWidth=1;rounded=0;exitX=0.1732;exitY=1.0000;entryX=0.6670;entryY=0.0000;" parent="1" edge="1" source="node27" target="node34">
      <mxGeometry as="geometry" relative="1">
        <mxPoint x="738.38" y="113.40000000000009" as="sourcePoint" />
        <mxPoint x="623.01" y="160.92000000000007" as="targetPoint" />
      </mxGeometry>
    </mxCell>
    <mxCell id="edge38" style="html=1;endArrow=block;dashed=0;endFill=1;startArrow=none;startFill=0;fillColor=black;strokeColor=black;strokeWidth=1;rounded=0;exitX=0.6089;exitY=1.0000;entryX=0.4593;entryY=0.0000;" parent="1" edge="1" source="node28" target="node31">
      <mxGeometry as="geometry" relative="1">
        <mxPoint x="964.84" y="113.08999999999992" as="sourcePoint" />
        <mxPoint x="1003.76" y="156.81999999999994" as="targetPoint" />
      </mxGeometry>
    </mxCell>
    <mxCell id="edge57" style="html=1;endArrow=block;dashed=0;endFill=1;startArrow=none;startFill=0;fillColor=black;strokeColor=black;strokeWidth=1;curved=1;exitX=0.5628;exitY=1.0000;entryX=0.5121;entryY=0.0000;" parent="1" edge="1" source="node29" target="node54">
      <mxGeometry as="geometry" relative="1">
        <mxPoint x="1290.79" y="113.48000000000002" as="sourcePoint" />
        <mxPoint x="1318.62" y="208.04999999999995" as="targetPoint" />
        <Array as="points">
          <mxPoint x="1321.1961075103798" y="182.97588689897134" />
        </Array>
      </mxGeometry>
    </mxCell>
    <mxCell id="edge65" style="html=1;endArrow=block;dashed=0;endFill=1;startArrow=none;startFill=0;fillColor=black;strokeColor=black;strokeWidth=1;rounded=0;exitX=0.5487;exitY=1.0000;entryX=0.4650;entryY=0.0000;" parent="1" edge="1" source="node30" target="node50">
      <mxGeometry as="geometry" relative="1">
        <mxPoint x="1548.5" y="113.08999999999992" as="sourcePoint" />
        <mxPoint x="1572.85" y="155.20000000000005" as="targetPoint" />
      </mxGeometry>
    </mxCell>
    <mxCell id="edge21" style="html=1;endArrow=block;dashed=0;endFill=1;startArrow=none;startFill=0;fillColor=black;strokeColor=black;strokeWidth=1;rounded=0;exitX=0.4954;exitY=1.0000;entryX=0.5203;entryY=0.0000;" parent="1" edge="1" source="node31" target="node11">
      <mxGeometry as="geometry" relative="1">
        <mxPoint x="1024.05" y="201.52999999999997" as="sourcePoint" />
        <mxPoint x="1014.93" y="261.98" as="targetPoint" />
      </mxGeometry>
    </mxCell>
    <mxCell id="edge22" style="html=1;endArrow=block;dashed=0;endFill=1;startArrow=none;startFill=0;fillColor=black;strokeColor=black;strokeWidth=1;rounded=0;exitX=0.0913;exitY=1.0000;entryX=0.9800;entryY=0.0000;" parent="1" edge="1" source="node32" target="node14">
      <mxGeometry as="geometry" relative="1">
        <mxPoint x="987.11" y="506.37" as="sourcePoint" />
        <mxPoint x="917.94" y="542.22" as="targetPoint" />
      </mxGeometry>
    </mxCell>
    <mxCell id="edge45" style="html=1;endArrow=block;dashed=0;endFill=1;startArrow=none;startFill=0;fillColor=black;strokeColor=black;strokeWidth=1;rounded=0;exitX=0.5000;exitY=1.0000;entryX=0.5000;entryY=0.0000;" parent="1" edge="1" source="node33" target="node49">
      <mxGeometry as="geometry" relative="1">
        <mxPoint x="883.62" y="687.03" as="sourcePoint" />
        <mxPoint x="883.62" y="747.21" as="targetPoint" />
      </mxGeometry>
    </mxCell>
    <mxCell id="edge36" style="html=1;endArrow=block;dashed=0;endFill=1;startArrow=none;startFill=0;fillColor=black;strokeColor=black;strokeWidth=1;rounded=0;exitX=0.5256;exitY=1.0000;entryX=0.4123;entryY=0.0000;" parent="1" edge="1" source="node34" target="node45">
      <mxGeometry as="geometry" relative="1">
        <mxPoint x="578.66" y="201.52999999999997" as="sourcePoint" />
        <mxPoint x="608.37" y="264.52" as="targetPoint" />
      </mxGeometry>
    </mxCell>
    <mxCell id="edge25" style="html=1;endArrow=block;dashed=0;endFill=1;startArrow=none;startFill=0;fillColor=black;strokeColor=black;strokeWidth=1;rounded=0;exitX=0.6902;exitY=1.0000;entryX=0.2334;entryY=0.0000;" parent="1" edge="1" source="node35" target="node36">
      <mxGeometry as="geometry" relative="1">
        <mxPoint x="621.66" y="417.59000000000003" as="sourcePoint" />
        <mxPoint x="655.56" y="462.01" as="targetPoint" />
      </mxGeometry>
    </mxCell>
    <mxCell id="edge64" style="html=1;endArrow=block;dashed=0;endFill=1;startArrow=none;startFill=0;fillColor=black;strokeColor=black;strokeWidth=1;rounded=0;exitX=0.5000;exitY=1.0000;entryX=0.4999;entryY=0.0000;" parent="1" edge="1" source="node36" target="node38">
      <mxGeometry as="geometry" relative="1">
        <mxPoint x="674.62" y="506.38" as="sourcePoint" />
        <mxPoint x="674.62" y="585.38" as="targetPoint" />
      </mxGeometry>
    </mxCell>
    <mxCell id="edge26" style="html=1;endArrow=block;dashed=0;endFill=1;startArrow=none;startFill=0;fillColor=black;strokeColor=black;strokeWidth=1;rounded=0;exitX=0.4350;exitY=1.0000;entryX=0.6217;entryY=0.0000;" parent="1" edge="1" source="node37" target="node36">
      <mxGeometry as="geometry" relative="1">
        <mxPoint x="696.29" y="417.59000000000003" as="sourcePoint" />
        <mxPoint x="683.32" y="459.15999999999997" as="targetPoint" />
      </mxGeometry>
    </mxCell>
    <mxCell id="edge27" style="html=1;endArrow=block;dashed=0;endFill=1;startArrow=none;startFill=0;fillColor=black;strokeColor=black;strokeWidth=1;curved=1;exitX=0.4999;exitY=1.0000;entryX=0.2572;entryY=0.0000;" parent="1" edge="1" source="node38" target="node39">
      <mxGeometry as="geometry" relative="1">
        <mxPoint x="674.62" y="633.26" as="sourcePoint" />
        <mxPoint x="684.51" y="1383.51" as="targetPoint" />
        <Array as="points">
          <mxPoint x="674.62" y="722.0" />
          <mxPoint x="674.62" y="1358.6125" />
        </Array>
      </mxGeometry>
    </mxCell>
    <mxCell id="edge30" style="html=1;endArrow=block;dashed=0;endFill=1;startArrow=none;startFill=0;fillColor=black;strokeColor=black;strokeWidth=1;rounded=0;exitX=0.4323;exitY=1.0000;entryX=0.7122;entryY=0.0000;" parent="1" edge="1" source="node40" target="node15">
      <mxGeometry as="geometry" relative="1">
        <mxPoint x="874.17" y="865.74" as="sourcePoint" />
        <mxPoint x="833.02" y="929.89" as="targetPoint" />
      </mxGeometry>
    </mxCell>
    <mxCell id="label_edge30" style="edgeLabel;html=1;align=center;verticalAlign=bottom;resizable=0;points=[];" parent="edge30" value="&lt;font style='font-size: 14.0px;' face='Times,serif' color='#000000'&gt;No&lt;/font&gt;" vertex="1" connectable="0">
      <mxGeometry as="geometry" relative="1" />
    </mxCell>
    <mxCell id="edge31" style="html=1;endArrow=block;dashed=0;endFill=1;startArrow=none;startFill=0;fillColor=black;strokeColor=black;strokeWidth=1;rounded=0;exitX=0.5272;exitY=1.0000;entryX=0.4022;entryY=0.0000;" parent="1" edge="1" source="node40" target="node41">
      <mxGeometry as="geometry" relative="1">
        <mxPoint x="887.42" y="867.1" as="sourcePoint" />
        <mxPoint x="901.93" y="928.6" as="targetPoint" />
      </mxGeometry>
    </mxCell>
    <mxCell id="label_edge31" style="edgeLabel;html=1;align=center;verticalAlign=bottom;resizable=0;points=[];" parent="edge31" value="&lt;font style='font-size: 14.0px;' face='Times,serif' color='#000000'&gt;Yes&lt;/font&gt;" vertex="1" connectable="0">
      <mxGeometry as="geometry" relative="1" />
    </mxCell>
    <mxCell id="edge46" style="html=1;endArrow=block;dashed=0;endFill=1;startArrow=none;startFill=0;fillColor=black;strokeColor=black;strokeWidth=1;rounded=0;exitX=0.1924;exitY=1.0000;entryX=0.8764;entryY=0.0000;" parent="1" edge="1" source="node41" target="node16">
      <mxGeometry as="geometry" relative="1">
        <mxPoint x="887.56" y="976.19" as="sourcePoint" />
        <mxPoint x="848.53" y="1008.04" as="targetPoint" />
      </mxGeometry>
    </mxCell>
    <mxCell id="edge32" style="html=1;endArrow=block;dashed=0;endFill=1;startArrow=none;startFill=0;fillColor=black;strokeColor=black;strokeWidth=1;rounded=0;exitX=0.4103;exitY=1.0000;entryX=0.8420;entryY=0.0000;" parent="1" edge="1" source="node42" target="node17">
      <mxGeometry as="geometry" relative="1">
        <mxPoint x="809.09" y="1118.9" as="sourcePoint" />
        <mxPoint x="767.06" y="1165.51" as="targetPoint" />
      </mxGeometry>
    </mxCell>
    <mxCell id="label_edge32" style="edgeLabel;html=1;align=center;verticalAlign=bottom;resizable=0;points=[];" parent="edge32" value="&lt;font style='font-size: 14.0px;' face='Times,serif' color='#000000'&gt;Yes&lt;/font&gt;" vertex="1" connectable="0">
      <mxGeometry as="geometry" relative="1" />
    </mxCell>
    <mxCell id="edge33" style="html=1;endArrow=block;dashed=0;endFill=1;startArrow=none;startFill=0;fillColor=black;strokeColor=black;strokeWidth=1;rounded=0;exitX=0.5207;exitY=1.0000;entryX=0.4398;entryY=0.0000;" parent="1" edge="1" source="node42" target="node43">
      <mxGeometry as="geometry" relative="1">
        <mxPoint x="824.52" y="1121.68" as="sourcePoint" />
        <mxPoint x="831.68" y="1162.99" as="targetPoint" />
      </mxGeometry>
    </mxCell>
    <mxCell id="label_edge33" style="edgeLabel;html=1;align=center;verticalAlign=bottom;resizable=0;points=[];" parent="edge33" value="&lt;font style='font-size: 14.0px;' face='Times,serif' color='#000000'&gt;No&lt;/font&gt;" vertex="1" connectable="0">
      <mxGeometry as="geometry" relative="1" />
    </mxCell>
    <mxCell id="edge34" style="html=1;endArrow=block;dashed=0;endFill=1;startArrow=none;startFill=0;fillColor=black;strokeColor=black;strokeWidth=1;rounded=0;exitX=0.2255;exitY=1.0000;entryX=0.8930;entryY=0.0000;" parent="1" edge="1" source="node43" target="node18">
      <mxGeometry as="geometry" relative="1">
        <mxPoint x="814.11" y="1210.69" as="sourcePoint" />
        <mxPoint x="771.72" y="1243.05" as="targetPoint" />
      </mxGeometry>
    </mxCell>
    <mxCell id="edge35" style="html=1;endArrow=block;dashed=0;endFill=1;startArrow=none;startFill=0;fillColor=black;strokeColor=black;strokeWidth=1;rounded=0;exitX=0.3630;exitY=1.0000;entryX=0.8081;entryY=0.0000;" parent="1" edge="1" source="node44" target="node39">
      <mxGeometry as="geometry" relative="1">
        <mxPoint x="732.49" y="1356.69" as="sourcePoint" />
        <mxPoint x="714.26" y="1384.82" as="targetPoint" />
      </mxGeometry>
    </mxCell>
    <mxCell id="edge40" style="html=1;endArrow=block;dashed=0;endFill=1;startArrow=none;startFill=0;fillColor=black;strokeColor=black;strokeWidth=1;rounded=0;exitX=0.4866;exitY=1.0000;entryX=0.5469;entryY=0.0000;" parent="1" edge="1" source="node45" target="node35">
      <mxGeometry as="geometry" relative="1">
        <mxPoint x="618.75" y="309.05999999999995" as="sourcePoint" />
        <mxPoint x="611.84" y="370.06999999999994" as="targetPoint" />
      </mxGeometry>
    </mxCell>
    <mxCell id="label_edge40" style="edgeLabel;html=1;align=center;verticalAlign=bottom;resizable=0;points=[];" parent="edge40" value="&lt;font style='font-size: 14.0px;' face='Times,serif' color='#000000'&gt;Yes&lt;/font&gt;" vertex="1" connectable="0">
      <mxGeometry as="geometry" relative="1" />
    </mxCell>
    <mxCell id="edge41" style="html=1;endArrow=block;dashed=0;endFill=1;startArrow=none;startFill=0;fillColor=black;strokeColor=black;strokeWidth=1;rounded=0;exitX=0.5782;exitY=1.0000;entryX=0.2565;entryY=0.0000;" parent="1" edge="1" source="node45" target="node37">
      <mxGeometry as="geometry" relative="1">
        <mxPoint x="631.55" y="306.79999999999995" as="sourcePoint" />
        <mxPoint x="681.65" y="372.3599999999999" as="targetPoint" />
      </mxGeometry>
    </mxCell>
    <mxCell id="label_edge41" style="edgeLabel;html=1;align=center;verticalAlign=bottom;resizable=0;points=[];" parent="edge41" value="&lt;font style='font-size: 14.0px;' face='Times,serif' color='#000000'&gt;No&lt;/font&gt;" vertex="1" connectable="0">
      <mxGeometry as="geometry" relative="1" />
    </mxCell>
    <mxCell id="edge42" style="html=1;endArrow=block;dashed=0;endFill=1;startArrow=none;startFill=0;fillColor=black;strokeColor=black;strokeWidth=1;rounded=0;exitX=0.6425;exitY=1.0000;entryX=0.0000;entryY=0.0306;" parent="1" edge="1" source="node47" target="node7">
      <mxGeometry as="geometry" relative="1">
        <mxPoint x="183.42" y="417.79999999999995" as="sourcePoint" />
        <mxPoint x="306.05" y="471.1" as="targetPoint" />
      </mxGeometry>
    </mxCell>
    <mxCell id="edge43" style="html=1;endArrow=block;dashed=0;endFill=1;startArrow=none;startFill=0;fillColor=black;strokeColor=black;strokeWidth=1;rounded=0;exitX=0.5000;exitY=1.0000;entryX=0.5000;entryY=0.0000;" parent="1" edge="1" source="node48" target="node7">
      <mxGeometry as="geometry" relative="1">
        <mxPoint x="342.62" y="417.59000000000003" as="sourcePoint" />
        <mxPoint x="342.62" y="458.48" as="targetPoint" />
      </mxGeometry>
    </mxCell>
    <mxCell id="edge53" style="html=1;endArrow=block;dashed=0;endFill=1;startArrow=none;startFill=0;fillColor=black;strokeColor=black;strokeWidth=1;rounded=0;exitX=0.5000;exitY=1.0000;entryX=0.5000;entryY=0.0000;" parent="1" edge="1" source="node49" target="node40">
      <mxGeometry as="geometry" relative="1">
        <mxPoint x="883.62" y="795.19" as="sourcePoint" />
        <mxPoint x="883.62" y="820.46" as="targetPoint" />
      </mxGeometry>
    </mxCell>
    <mxCell id="edge47" style="html=1;endArrow=block;dashed=0;endFill=1;startArrow=none;startFill=0;fillColor=black;strokeColor=black;strokeWidth=1;rounded=0;exitX=0.5000;exitY=1.0000;entryX=0.5000;entryY=0.0000;" parent="1" edge="1" source="node50" target="node19">
      <mxGeometry as="geometry" relative="1">
        <mxPoint x="1588.62" y="201.52999999999997" as="sourcePoint" />
        <mxPoint x="1588.62" y="261.71000000000004" as="targetPoint" />
      </mxGeometry>
    </mxCell>
    <mxCell id="edge49" style="html=1;endArrow=block;dashed=0;endFill=1;startArrow=none;startFill=0;fillColor=black;strokeColor=black;strokeWidth=1;rounded=0;exitX=0.3571;exitY=1.0000;entryX=0.7464;entryY=0.0000;" parent="1" edge="1" source="node51" target="node4">
      <mxGeometry as="geometry" relative="1">
        <mxPoint x="2051.9" y="201.52999999999997" as="sourcePoint" />
        <mxPoint x="2008.24" y="264.9200000000001" as="targetPoint" />
      </mxGeometry>
    </mxCell>
    <mxCell id="edge51" style="html=1;endArrow=block;dashed=0;endFill=1;startArrow=none;startFill=0;fillColor=black;strokeColor=black;strokeWidth=1;rounded=0;exitX=0.2656;exitY=1.0000;entryX=0.8982;entryY=0.0000;" parent="1" edge="1" source="node52" target="node53">
      <mxGeometry as="geometry" relative="1">
        <mxPoint x="1486.86" y="793.08" as="sourcePoint" />
        <mxPoint x="1391.91" y="878.46" as="targetPoint" />
      </mxGeometry>
    </mxCell>
    <mxCell id="edge52" style="html=1;endArrow=block;dashed=0;endFill=1;startArrow=none;startFill=0;fillColor=black;strokeColor=black;strokeWidth=1;curved=1;exitX=0.3660;exitY=1.0000;entryX=1.0000;entryY=0.4831;" parent="1" edge="1" source="node53" target="node39">
      <mxGeometry as="geometry" relative="1">
        <mxPoint x="1355.45" y="922.19" as="sourcePoint" />
        <mxPoint x="736.11" y="1410.89" as="targetPoint" />
        <Array as="points">
          <mxPoint x="1335.62" y="994.0" />
          <mxPoint x="1335.62" y="1361.4228850502159" />
          <mxPoint x="1289.468155254919" y="1373.479448052685" />
          <mxPoint x="1173.0405790457678" y="1413.6979876987712" />
        </Array>
      </mxGeometry>
    </mxCell>
    <mxCell id="edge58" style="html=1;endArrow=block;dashed=0;endFill=1;startArrow=none;startFill=0;fillColor=black;strokeColor=black;strokeWidth=1;curved=1;exitX=0.4703;exitY=1.0000;entryX=1.0000;entryY=0.4522;" parent="1" edge="1" source="node54" target="node39">
      <mxGeometry as="geometry" relative="1">
        <mxPoint x="1301.37" y="255.96000000000004" as="sourcePoint" />
        <mxPoint x="736.0" y="1409.78" as="targetPoint" />
        <Array as="points">
          <mxPoint x="1269.62" y="344.5" />
          <mxPoint x="1269.62" y="1397.6683534825677" />
        </Array>
      </mxGeometry>
    </mxCell>
    <mxCell id="edge60" style="html=1;endArrow=block;dashed=0;endFill=1;startArrow=none;startFill=0;fillColor=black;strokeColor=black;strokeWidth=1;curved=1;exitX=0.4226;exitY=1.0000;entryX=0.4821;entryY=0.0000;" parent="1" edge="1" source="node55" target="node47">
      <mxGeometry as="geometry" relative="1">
        <mxPoint x="161.48" y="307.21000000000004" as="sourcePoint" />
        <mxPoint x="138.64" y="370.18000000000006" as="targetPoint" />
        <Array as="points">
          <mxPoint x="136.56096276351218" y="344.15353385433764" />
        </Array>
      </mxGeometry>
    </mxCell>
    <mxCell id="label_edge60" style="edgeLabel;html=1;align=center;verticalAlign=bottom;resizable=0;points=[];" parent="edge60" value="&lt;font style='font-size: 14.0px;' face='Times,serif' color='#000000'&gt;Yes&lt;/font&gt;" vertex="1" connectable="0">
      <mxGeometry as="geometry" relative="1" />
    </mxCell>
    <mxCell id="edge61" style="html=1;endArrow=block;dashed=0;endFill=1;startArrow=none;startFill=0;fillColor=black;strokeColor=black;strokeWidth=1;curved=1;exitX=0.4785;exitY=1.0000;entryX=0.0000;entryY=0.0067;" parent="1" edge="1" source="node55" target="node48">
      <mxGeometry as="geometry" relative="1">
        <mxPoint x="178.93" y="309.22" as="sourcePoint" />
        <mxPoint x="290.25" y="381.74" as="targetPoint" />
        <Array as="points">
          <mxPoint x="167.0752877240485" y="345.79893710050374" />
          <mxPoint x="192.17255038929318" y="375.3228544979049" />
          <mxPoint x="279.4045830323361" y="380.17449295533015" />
        </Array>
      </mxGeometry>
    </mxCell>
    <mxCell id="label_edge61" style="edgeLabel;html=1;align=center;verticalAlign=bottom;resizable=0;points=[];" parent="edge61" value="&lt;font style='font-size: 14.0px;' face='Times,serif' color='#000000'&gt;No&lt;/font&gt;" vertex="1" connectable="0">
      <mxGeometry as="geometry" relative="1" />
    </mxCell>
  </root>
</mxGraphModel>